<svg t="1729132532217" class="icon" viewBox="0 0 1092 1024" version="1.1" xmlns="http://www.w3.org/2000/svg" p-id="1934" width="16" height="16"><path d="M157.013333 703.146667C68.266667 709.973333 6.826667 778.24 0 860.16c6.826667 88.746667 75.093333 150.186667 157.013333 157.013333 88.746667-6.826667 150.186667-75.093333 157.013334-157.013333 0-81.92-68.266667-150.186667-157.013334-157.013333zM157.013333 0C75.093333 6.826667 6.826667 75.093333 0 157.013333c6.826667 88.746667 75.093333 150.186667 157.013333 157.013334 88.746667-6.826667 150.186667-75.093333 157.013334-157.013334 0-81.92-68.266667-150.186667-157.013334-157.013333z m778.24 0c-88.746667 6.826667-150.186667 75.093333-157.013333 157.013333 6.826667 88.746667 75.093333 150.186667 157.013333 157.013334 88.746667-6.826667 150.186667-75.093333 157.013334-157.013334-6.826667-81.92-75.093333-150.186667-157.013334-157.013333z m0 703.146667c-88.746667 6.826667-150.186667 75.093333-157.013333 157.013333 6.826667 88.746667 75.093333 150.186667 157.013333 157.013333 88.746667-6.826667 157.013333-75.093333 157.013334-157.013333-6.826667-81.92-75.093333-150.186667-157.013334-157.013333z" p-id="1935" fill="#ffffff"></path></svg>