<svg t="1729432070534" class="icon" viewBox="0 0 1024 1024" version="1.1" xmlns="http://www.w3.org/2000/svg" p-id="35232" width="16" height="16"><path d="M238.336 85.333333L298.666667 145.749333 102.997333 341.333333 42.666667 280.917333 238.336 85.333333z m547.328 0L981.333333 280.917333 921.002667 341.333333 725.333333 145.749333 785.664 85.333333zM512 938.666667a384 384 0 1 1 0-768 384 384 0 0 1 0 768z m0-85.333334a298.666667 298.666667 0 1 0 0-597.333333 298.666667 298.666667 0 0 0 0 597.333333z" fill="#e6e6e6" p-id="35233"></path><path d="M682.794667 611.669333L635.434667 682.666667 469.333333 577.493333V384h85.333334v147.84z" fill="#e6e6e6" p-id="35234"></path></svg>