<svg t="1729405000327" class="icon" viewBox="0 0 1024 1024" version="1.1" xmlns="http://www.w3.org/2000/svg" p-id="4356" width="16" height="16"><path d="M747.95000029 667.43l197.39999971 197.39999971a56.90999971 56.90999971 0 0 1-80.52000029 80.49000058l-197.39999971-197.40000058a378.29999971 378.29999971 0 0 1-225.42000029 74.10000058C232.1 821.98999971 62 651.83000029 62 441.98 62 232.1 232.12999971 62 442.00999971 62c209.85000029 0 379.98 170.12999971 379.98 380.00999971a378.29999971 378.29999971 0 0 1-74.03999942 225.42000029z m-305.94000058 40.70999971a266.15999971 266.15999971 0 1 0 0-532.28999971 266.15999971 266.15999971 0 0 0 0 532.28999971z" p-id="4357" data-spm-anchor-id="a313x.search_index.0.i0.52d33a81gk9eS8" class="selected" fill="#BA7237"></path></svg>